/* XPM */
static char * icon_xpm[] = {
"32 32 179 2",
"  	c None",
". 	c #626564",
"+ 	c #565958",
"@ 	c #747776",
"# 	c #989B9A",
"$ 	c #A4A7A6",
"% 	c #AEB1B0",
"& 	c #C2C5C4",
"* 	c #C8CBCA",
"= 	c #C4C7C6",
"- 	c #DCDFDE",
"; 	c #F4F7F6",
"> 	c #343736",
", 	c #222524",
"' 	c #424544",
") 	c #505352",
"! 	c #848786",
"~ 	c #B0B3B2",
"{ 	c #BABDBC",
"] 	c #D2D5D4",
"^ 	c #CACDCC",
"/ 	c #C6C9C8",
"( 	c #A2A5A4",
"_ 	c #929594",
": 	c #949796",
"< 	c #404342",
"[ 	c #363938",
"} 	c #646766",
"| 	c #9A9D9C",
"1 	c #A0A3A2",
"2 	c #A8ABAA",
"3 	c #AAADAC",
"4 	c #B2B5B4",
"5 	c #0C0F0E",
"6 	c #0E1110",
"7 	c #060707",
"8 	c #2A2D2C",
"9 	c #5C5F5E",
"0 	c #7E8180",
"a 	c #868988",
"b 	c #888B8A",
"c 	c #4A4D4C",
"d 	c #767978",
"e 	c #8E9190",
"f 	c #9C9F9E",
"g 	c #1E2120",
"h 	c #141716",
"i 	c #1A1D1C",
"j 	c #3C3F3E",
"k 	c #5E6160",
"l 	c #828584",
"m 	c #8C8F8E",
"n 	c #909392",
"o 	c #020202",
"p 	c #666968",
"q 	c #BCBFBE",
"r 	c #242726",
"s 	c #323534",
"t 	c #303332",
"u 	c #3E4140",
"v 	c #707372",
"w 	c #B8BBBA",
"x 	c #7A7D7C",
"y 	c #4E5150",
"z 	c #262928",
"A 	c #6A6D6C",
"B 	c #464948",
"C 	c #969998",
"D 	c #808382",
"E 	c #2E3130",
"F 	c #B6B9B8",
"G 	c #BEC1C0",
"H 	c #B4B7B6",
"I 	c #9EA1A0",
"J 	c #8A8D8C",
"K 	c #606362",
"L 	c #5A5D5C",
"M 	c #A6A9A8",
"N 	c #ACAFAE",
"O 	c #727574",
"P 	c #686B6A",
"Q 	c #545756",
"R 	c #7C7F7E",
"S 	c #4C4F4E",
"T 	c #484B4A",
"U 	c #525554",
"V 	c #6C6F6E",
"W 	c #383B3A",
"X 	c #787B7A",
"Y 	c #585B5A",
"Z 	c #0A0D0C",
"` 	c #161918",
" .	c #1C1F1E",
"..	c #121514",
"+.	c #444746",
"@.	c #202322",
"#.	c #3A3D3C",
"$.	c #040505",
"%.	c #A38C75",
"&.	c #FCEAD3",
"*.	c #A58E77",
"=.	c #F5DEC7",
"-.	c #6F5841",
";.	c #C3AC95",
">.	c #C9B29B",
",.	c #6B543D",
"'.	c #D1BAA3",
").	c #282B2A",
"!.	c #F7E0C9",
"~.	c #E7D0B9",
"{.	c #FDF4DD",
"].	c #BFA891",
"^.	c #E9D2BB",
"/.	c #E1CAB3",
"(.	c #8F7861",
"_.	c #F7E8D1",
":.	c #5F4831",
"<.	c #6E7170",
"[.	c #030404",
"}.	c #857059",
"|.	c #9B846D",
"1.	c #CEBAA3",
"2.	c #A18A73",
"3.	c #F6E2CB",
"4.	c #957E67",
"5.	c #EAD6BF",
"6.	c #FDF9E3",
"7.	c #59422B",
"8.	c #816A53",
"9.	c #755E47",
"0.	c #513A23",
"a.	c #101312",
"b.	c #7F6851",
"c.	c #99826B",
"d.	c #B9A28B",
"e.	c #FDFCE9",
"f.	c #B39C85",
"g.	c #ABAEAD",
"h.	c #919493",
"i.	c #8B8E8D",
"j.	c #858887",
"k.	c #3B3E3D",
"l.	c #4D504F",
"m.	c #9B9E9D",
"n.	c #797C7B",
"o.	c #939695",
"p.	c #898C8B",
"q.	c #878A89",
"r.	c #8D908F",
"s.	c #7B7E7D",
"t.	c #777A79",
"u.	c #A3A6A5",
"v.	c #818483",
"w.	c #C5C8C7",
"x.	c #A5A8A7",
"y.	c #7F8281",
"z.	c #757877",
"A.	c #717473",
"B.	c #616463",
"C.	c #A1A4A3",
"D.	c #B3B6B5",
"E.	c #737675",
"F.	c #6F7271",
"G.	c #5D605F",
"H.	c #5B5E5D",
"I.	c #696C6B",
"J.	c #656867",
"K.	c #E6E9E8",
"L.	c #5F6261",
"M.	c #454847",
"N.	c #979A99",
"O.	c #DDE0DF",
"P.	c #414443",
"Q.	c #636665",
"R.	c #B1B4B3",
"S.	c #353837",
"T.	c #2C2F2E",
"U.	c #7D807F",
"V.	c #4B4E4D",
"                                                                ",
"                                                                ",
"                                                                ",
"    . + @ # $ % & * = = - ;                                     ",
"  > , , ' ) ! # $ ~ { & * ] ^ / / &                             ",
"  ( _ : # _ < [ } # | ( 1 2 2 ( 3 4 /                           ",
"  5 6 7 8 9 0 a 0 b # | c } d b e f 4 /                         ",
"  g h i 8 j < k k l m n # @ o o ; p n f q                       ",
"  r s t , g 8 u v _ m e # # a o o o [ k ! w w & & * q x y z 6   ",
"  ! l A A B 8 9 l e C C # : m D j E @ . 3 3 % ~ F G H _ 9 E 8   ",
"  I C e e J a l l e # n e m # # # n K : : 3 4 H ~ q q 3 e L r   ",
"  s k C | # # # # # # # M H M # # # d # # I 4 N ( % N 3 ( _ a   ",
"  O P Q ) O # # # # # $ F H M # # # # # n ( 4 2 $ | : I I # #   ",
"  R R 0 R b # # : e % % f d ' S T J J ! x O l # 0 O U k : # #   ",
"  m J n _ _ _ m C ~ f V S W s u W r U } K Q 9 P R 0 X c u R !   ",
"  D b # n n e C { n K Y U ' c Z `  ...` h z t E 8 +.@.+.y #.@   ",
"  D : # # # # % f L A N T g > $.o %.&.*.=.-.;.>.,.*.'.).r j     ",
"  l # e e # # 3 _ O 1 _ ) L > g o !.~.;.{.].^./.(._.=.:.        ",
"  b # a C # # : n # 3 <.p 0 O W [.}.|.(.1.2.3.4.5.6.7.8.        ",
"  D b X n # _ n # # f P : m v [  .[.9.0.4.a.b.c.d.e.,.          ",
"  a O 0 _ n ! n I N M # C C e d p . @., s +.r , f.E y U         ",
"  R y D g.h.d m ~ ~ # # C : i.j.O <.O X } L . k.l.+ v v         ",
"  U X m.4 n.0 : & ~ R o.i.p.p.q.q.j.J m m r.s.t.V v A A         ",
"  l.J u.v.@ : $ w.x.d J ! p.p.q.! v.a ! y.s.z.A.A A A           ",
"  B.C.o.K D _ D.r.E.p @ t.x @ O @ A.F.v O F.P P A               ",
"  e o.G.D R n * $ G.l.H.I.}                                     ",
"  r.J.P D b 3 K.J < T L.                                        ",
"  v M.L l N.* O.L.B y                                           ",
"  T P.Q.! # R.! l.U                                             ",
"  S.T.G.U.! q.U U                                               ",
"    u V.                                                        ",
"                                                                "};
